<mxfile host="Electron" modified="2023-12-10T15:44:37.923Z" agent="Mozilla/5.0 (Windows NT 10.0; Win64; x64) AppleWebKit/537.36 (KHTML, like Gecko) draw.io/22.1.2 Chrome/114.0.5735.289 Electron/25.9.4 Safari/537.36" etag="5NkBfCxeUGuBEMtmWlMr" version="22.1.2" type="device">
  <diagram id="C5RBs43oDa-KdzZeNtuy" name="Page-1">
    <mxGraphModel dx="957" dy="478" grid="1" gridSize="10" guides="1" tooltips="1" connect="1" arrows="1" fold="1" page="1" pageScale="1" pageWidth="827" pageHeight="1169" math="0" shadow="0">
      <root>
        <mxCell id="WIyWlLk6GJQsqaUBKTNV-0" />
        <mxCell id="WIyWlLk6GJQsqaUBKTNV-1" parent="WIyWlLk6GJQsqaUBKTNV-0" />
        <mxCell id="WIyWlLk6GJQsqaUBKTNV-2" value="" style="rounded=0;html=1;jettySize=auto;orthogonalLoop=1;fontSize=11;endArrow=block;endFill=0;endSize=8;strokeWidth=1;shadow=0;labelBackgroundColor=none;edgeStyle=orthogonalEdgeStyle;" parent="WIyWlLk6GJQsqaUBKTNV-1" source="WIyWlLk6GJQsqaUBKTNV-3" edge="1">
          <mxGeometry relative="1" as="geometry">
            <mxPoint x="400" y="201" as="targetPoint" />
          </mxGeometry>
        </mxCell>
        <mxCell id="WIyWlLk6GJQsqaUBKTNV-3" value="User Arrives To&lt;br&gt;&amp;nbsp;Main Page" style="rounded=1;whiteSpace=wrap;html=1;fontSize=12;glass=0;strokeWidth=1;shadow=0;" parent="WIyWlLk6GJQsqaUBKTNV-1" vertex="1">
          <mxGeometry x="340" y="121" width="120" height="40" as="geometry" />
        </mxCell>
        <mxCell id="ww0QZuMbtuvIpq0SqPOi-2" value="" style="rounded=0;html=1;jettySize=auto;orthogonalLoop=1;fontSize=11;endArrow=block;endFill=0;endSize=8;strokeWidth=1;shadow=0;labelBackgroundColor=none;edgeStyle=orthogonalEdgeStyle;" parent="WIyWlLk6GJQsqaUBKTNV-1" source="ww0QZuMbtuvIpq0SqPOi-3" edge="1">
          <mxGeometry relative="1" as="geometry">
            <mxPoint x="400" y="281" as="targetPoint" />
          </mxGeometry>
        </mxCell>
        <mxCell id="ww0QZuMbtuvIpq0SqPOi-3" value="Click on Donate&lt;br&gt;Top Menu Link" style="rounded=1;whiteSpace=wrap;html=1;fontSize=12;glass=0;strokeWidth=1;shadow=0;" parent="WIyWlLk6GJQsqaUBKTNV-1" vertex="1">
          <mxGeometry x="340" y="201" width="120" height="40" as="geometry" />
        </mxCell>
        <mxCell id="ww0QZuMbtuvIpq0SqPOi-6" value="" style="rounded=0;html=1;jettySize=auto;orthogonalLoop=1;fontSize=11;endArrow=block;endFill=0;endSize=8;strokeWidth=1;shadow=0;labelBackgroundColor=none;edgeStyle=orthogonalEdgeStyle;" parent="WIyWlLk6GJQsqaUBKTNV-1" source="ww0QZuMbtuvIpq0SqPOi-7" edge="1">
          <mxGeometry relative="1" as="geometry">
            <mxPoint x="400" y="361" as="targetPoint" />
          </mxGeometry>
        </mxCell>
        <mxCell id="ww0QZuMbtuvIpq0SqPOi-7" value="Complete Donation Form" style="rounded=1;whiteSpace=wrap;html=1;fontSize=12;glass=0;strokeWidth=1;shadow=0;" parent="WIyWlLk6GJQsqaUBKTNV-1" vertex="1">
          <mxGeometry x="340" y="281" width="120" height="40" as="geometry" />
        </mxCell>
        <mxCell id="ww0QZuMbtuvIpq0SqPOi-8" value="" style="strokeWidth=2;html=1;shape=mxgraph.flowchart.annotation_2;align=left;labelPosition=right;pointerEvents=1;" parent="WIyWlLk6GJQsqaUBKTNV-1" vertex="1">
          <mxGeometry x="470" y="251" width="50" height="100" as="geometry" />
        </mxCell>
        <mxCell id="ww0QZuMbtuvIpq0SqPOi-10" value="2. Form Fields Captured:&lt;br&gt;&lt;ul&gt;&lt;li&gt;Name&lt;/li&gt;&lt;li&gt;Amount&lt;/li&gt;&lt;li&gt;Donation Date&lt;/li&gt;&lt;li&gt;&lt;span style=&quot;background-color: initial;&quot;&gt;Target Organization&amp;nbsp;&lt;/span&gt;&lt;br&gt;&lt;/li&gt;&lt;/ul&gt;" style="text;html=1;strokeColor=none;fillColor=none;align=left;verticalAlign=top;whiteSpace=wrap;rounded=0;" parent="WIyWlLk6GJQsqaUBKTNV-1" vertex="1">
          <mxGeometry x="495" y="251" width="160" height="100" as="geometry" />
        </mxCell>
        <mxCell id="ww0QZuMbtuvIpq0SqPOi-12" value="" style="rounded=0;html=1;jettySize=auto;orthogonalLoop=1;fontSize=11;endArrow=block;endFill=0;endSize=8;strokeWidth=1;shadow=0;labelBackgroundColor=none;edgeStyle=orthogonalEdgeStyle;" parent="WIyWlLk6GJQsqaUBKTNV-1" source="ww0QZuMbtuvIpq0SqPOi-13" edge="1">
          <mxGeometry relative="1" as="geometry">
            <mxPoint x="400" y="441" as="targetPoint" />
          </mxGeometry>
        </mxCell>
        <mxCell id="ww0QZuMbtuvIpq0SqPOi-13" value="Enter PayPal Portal&lt;br&gt;(Complete Payment)" style="rounded=1;whiteSpace=wrap;html=1;fontSize=12;glass=0;strokeWidth=1;shadow=0;" parent="WIyWlLk6GJQsqaUBKTNV-1" vertex="1">
          <mxGeometry x="340" y="361" width="120" height="40" as="geometry" />
        </mxCell>
        <mxCell id="ww0QZuMbtuvIpq0SqPOi-15" value="Return to&lt;br&gt;Thank You Page" style="rounded=1;whiteSpace=wrap;html=1;fontSize=12;glass=0;strokeWidth=1;shadow=0;" parent="WIyWlLk6GJQsqaUBKTNV-1" vertex="1">
          <mxGeometry x="340" y="441" width="120" height="40" as="geometry" />
        </mxCell>
        <mxCell id="ww0QZuMbtuvIpq0SqPOi-16" value="Start" style="strokeWidth=2;html=1;shape=mxgraph.flowchart.start_2;whiteSpace=wrap;" parent="WIyWlLk6GJQsqaUBKTNV-1" vertex="1">
          <mxGeometry x="380" y="40" width="40" height="40" as="geometry" />
        </mxCell>
        <mxCell id="ww0QZuMbtuvIpq0SqPOi-18" value="" style="rounded=0;html=1;jettySize=auto;orthogonalLoop=1;fontSize=11;endArrow=block;endFill=0;endSize=8;strokeWidth=1;shadow=0;labelBackgroundColor=none;edgeStyle=orthogonalEdgeStyle;" parent="WIyWlLk6GJQsqaUBKTNV-1" edge="1">
          <mxGeometry relative="1" as="geometry">
            <mxPoint x="401" y="81" as="sourcePoint" />
            <mxPoint x="401" y="121" as="targetPoint" />
            <Array as="points">
              <mxPoint x="401" y="102" />
              <mxPoint x="402" y="102" />
              <mxPoint x="402" y="101" />
              <mxPoint x="401" y="101" />
            </Array>
          </mxGeometry>
        </mxCell>
        <mxCell id="ww0QZuMbtuvIpq0SqPOi-19" value="" style="strokeWidth=2;html=1;shape=mxgraph.flowchart.annotation_2;align=left;labelPosition=right;pointerEvents=1;rotation=-180;" parent="WIyWlLk6GJQsqaUBKTNV-1" vertex="1">
          <mxGeometry x="282" y="91" width="50" height="100" as="geometry" />
        </mxCell>
        <mxCell id="ww0QZuMbtuvIpq0SqPOi-20" value="Necesary Changes:&lt;br&gt;&lt;br&gt;1. Add a &quot;Donate&quot; to the top menu which navigates user to the donate page" style="text;html=1;strokeColor=none;fillColor=none;align=left;verticalAlign=top;whiteSpace=wrap;rounded=0;" parent="WIyWlLk6GJQsqaUBKTNV-1" vertex="1">
          <mxGeometry x="190" y="91" width="110" height="99" as="geometry" />
        </mxCell>
        <mxCell id="ww0QZuMbtuvIpq0SqPOi-24" value="" style="strokeWidth=2;html=1;shape=mxgraph.flowchart.annotation_2;align=left;labelPosition=right;pointerEvents=1;rotation=-180;" parent="WIyWlLk6GJQsqaUBKTNV-1" vertex="1">
          <mxGeometry x="282" y="251" width="50" height="100" as="geometry" />
        </mxCell>
        <mxCell id="ww0QZuMbtuvIpq0SqPOi-25" value="3. Necesary Changes:&lt;br&gt;&lt;br&gt;Create new Donate Page with specified fields and logic to send user to PayPal" style="text;html=1;strokeColor=none;fillColor=none;align=left;verticalAlign=top;whiteSpace=wrap;rounded=0;" parent="WIyWlLk6GJQsqaUBKTNV-1" vertex="1">
          <mxGeometry x="170" y="251" width="130" height="99" as="geometry" />
        </mxCell>
        <mxCell id="ww0QZuMbtuvIpq0SqPOi-26" value="" style="strokeWidth=2;html=1;shape=mxgraph.flowchart.annotation_2;align=left;labelPosition=right;pointerEvents=1;rotation=-180;" parent="WIyWlLk6GJQsqaUBKTNV-1" vertex="1">
          <mxGeometry x="282" y="412" width="50" height="100" as="geometry" />
        </mxCell>
        <mxCell id="ww0QZuMbtuvIpq0SqPOi-27" value="4. Necesary Changes:&lt;br&gt;&lt;br&gt;Create Thank You Page" style="text;html=1;strokeColor=none;fillColor=none;align=left;verticalAlign=top;whiteSpace=wrap;rounded=0;" parent="WIyWlLk6GJQsqaUBKTNV-1" vertex="1">
          <mxGeometry x="170" y="412" width="130" height="99" as="geometry" />
        </mxCell>
      </root>
    </mxGraphModel>
  </diagram>
</mxfile>
